<svg id="gaze" xmlns="http://www.w3.org/2000/svg" viewBox="0 0 30 30">
  <defs>
    <style>
      .cls-1 {
        fill: #4b5362;
      }

      .cls-2 {
        fill: none;
      }
    </style>
  </defs>
  <title>gaze</title>
  <g>
    <path class="cls-1" d="M24.37,11.65A3.34,3.34,0,1,0,27.71,15,3.34,3.34,0,0,0,24.37,11.65Zm0,5.35a2,2,0,1,1,2-2A2,2,0,0,1,24.37,17Z"/>
    <path class="cls-1" d="M5.63,11.65A3.34,3.34,0,1,0,9,15,3.34,3.34,0,0,0,5.63,11.65Zm0,5.35a2,2,0,1,1,2-2A2,2,0,0,1,5.63,17Z"/>
    <path class="cls-1" d="M19.46,14.6,15.54,9.25a.69.69,0,0,0-1.08,0L10.54,14.6a.69.69,0,0,0,0,.78l3.92,5.35a.66.66,0,0,0,1.08,0l3.92-5.35A.69.69,0,0,0,19.46,14.6ZM15,19.2,11.92,15,15,10.78,18.08,15Z"/>
  </g>
  <rect class="cls-2" width="30" height="30"/>
</svg>
