<svg id="orb" xmlns="http://www.w3.org/2000/svg" viewBox="0 0 30 30">
  <defs>
    <style>
      .cls-1 {
        fill: #4b5362;
      }

      .cls-2 {
        fill: none;
      }
    </style>
  </defs>
  <title>orb</title>
  <g>
    <path class="cls-1" d="M23.94,20.89l-2.23-1.47a8.09,8.09,0,0,0,.73-1.4,8.5,8.5,0,0,0,.44-1.49A7.86,7.86,0,0,0,23,15a8,8,0,0,0-.15-1.54A8.4,8.4,0,0,0,22.44,12a8.09,8.09,0,0,0-.73-1.4l2.23-1.47a10.33,10.33,0,0,1,1,1.86,10.58,10.58,0,0,1,.59,2,11,11,0,0,1,0,4.08,10.64,10.64,0,0,1-1.57,3.85Z"/>
    <path class="cls-1" d="M19.41,8.29A7.66,7.66,0,0,0,18,7.56a8.5,8.5,0,0,0-1.49-.44,7.88,7.88,0,0,0-3.06,0A8.5,8.5,0,0,0,12,7.56a7.66,7.66,0,0,0-1.39.73L9.11,6.06a10,10,0,0,1,1.86-1,10.58,10.58,0,0,1,2-.59,10.77,10.77,0,0,1,4.08,0,10.58,10.58,0,0,1,2,.59,10,10,0,0,1,1.86,1Z"/>
    <path class="cls-1" d="M6.06,20.89a10.72,10.72,0,0,1-1-9.92,10.33,10.33,0,0,1,1-1.86l2.23,1.47A8.09,8.09,0,0,0,7.56,12a8.26,8.26,0,0,0-.44,1.49A7.86,7.86,0,0,0,7,15a8,8,0,0,0,.15,1.54A8.66,8.66,0,0,0,7.56,18a8.09,8.09,0,0,0,.73,1.4Z"/>
    <path class="cls-1" d="M15,25.7a10.57,10.57,0,0,1-4-.78,11.36,11.36,0,0,1-1.86-1l1.48-2.23a8.34,8.34,0,0,0,1.39.73,8.5,8.5,0,0,0,1.49.44,8.28,8.28,0,0,0,3.06,0A8.5,8.5,0,0,0,18,22.44a8.34,8.34,0,0,0,1.39-.73l1.48,2.23a11.36,11.36,0,0,1-1.86,1,10.57,10.57,0,0,1-4,.78Z"/>
  </g>
  <rect class="cls-2" width="30" height="30"/>
</svg>
