<svg id="rotate" xmlns="http://www.w3.org/2000/svg" viewBox="0 0 30 30">
  <defs>
    <style>
      .cls-1 {
        fill: #4b5362;
      }

      .cls-2 {
        fill: none;
      }
    </style>
  </defs>
  <title>rotate</title>
  <g>
    <path class="cls-1" d="M14.32,25.19V23a8,8,0,0,1-2.45-.59A8.24,8.24,0,0,1,7.6,18.13a8.09,8.09,0,0,1,0-6.26A7.85,7.85,0,0,1,9.33,9.33l1.88,1.88a5.55,5.55,0,0,0-1.15,1.7,5.53,5.53,0,0,0,0,4.18,5.55,5.55,0,0,0,1.15,1.7,5.74,5.74,0,0,0,1.7,1.15,5.85,5.85,0,0,0,1.41.36V18.18l3.5,3.51Z"/>
    <path class="cls-1" d="M23,15a8.17,8.17,0,0,1-.63,3.13,7.85,7.85,0,0,1-1.73,2.54l-1.88-1.88a5.55,5.55,0,0,0,1.15-1.7,5.53,5.53,0,0,0,0-4.18,5.55,5.55,0,0,0-1.15-1.7,5.74,5.74,0,0,0-1.7-1.15,5.92,5.92,0,0,0-1.42-.36v2.12L12.16,8.31l3.51-3.5V7a8.09,8.09,0,0,1,6.73,4.86A8.17,8.17,0,0,1,23,15Z"/>
  </g>
  <rect class="cls-2" width="30" height="30"/>
</svg>
